<svg width="79" height="18" viewBox="0 0 79 18" fill="none" xmlns="http://www.w3.org/2000/svg">
<path fill-rule="evenodd" clip-rule="evenodd" d="M10.7115 3.87426C12.6751 3.87426 13.9308 5.81953 13.9308 5.81953C13.9308 5.81953 12.0153 6.88377 12.0153 9.19506C12.0153 11.9383 14.4216 12.7363 14.4216 12.7363C14.4216 12.7363 12.5223 17.3503 10.3897 17.3503C9.19046 17.3503 9.11032 16.6439 7.51664 16.6439C6.13265 16.6439 5.66592 17.3503 4.61163 17.3503C2.59939 17.3503 0 12.8527 0 9.19506C0 5.39571 2.63178 3.87426 4.28152 3.87426C5.73029 3.87426 6.33363 4.74715 7.50045 4.74715C8.48248 4.74715 9.25524 3.87426 10.7115 3.87426ZM10.3739 0C10.6633 1.86221 9.01357 4.16537 7.04202 4.09045C6.75219 1.72094 8.87696 0.125004 10.3739 0ZM24.3538 10.318L25.8975 5.96817H25.923L27.4413 10.318H24.3538ZM25.2596 4.84478L21.7128 14.1715H22.9504L23.971 11.363H27.824L28.8192 14.1715H30.1588L26.5992 4.84478H25.2596ZM30.9115 7.41812V16.7448H31.996V13.2702H32.0215C32.1406 13.4705 32.2873 13.6381 32.4617 13.7731C32.636 13.9081 32.821 14.0148 33.0167 14.0931C33.2123 14.1715 33.41 14.2281 33.6099 14.2629C33.8098 14.2978 33.9905 14.3152 34.1521 14.3152C34.654 14.3152 35.0941 14.2238 35.4726 14.0409C35.8511 13.858 36.1658 13.6076 36.4167 13.2898C36.6677 12.9719 36.8548 12.5996 36.9781 12.1729C37.1014 11.7462 37.1631 11.2934 37.1631 10.8144C37.1631 10.3354 37.0993 9.88261 36.9717 9.45589C36.8442 9.02918 36.6549 8.65254 36.404 8.32598C36.1531 7.99941 35.8384 7.74034 35.4599 7.54875C35.0814 7.35716 34.637 7.26137 34.1266 7.26137C33.6673 7.26137 33.2463 7.34628 32.8636 7.51609C32.4808 7.68591 32.2001 7.95804 32.0215 8.33251H31.996V7.41812H30.9115ZM36.0149 10.736C36.0149 11.067 35.9808 11.3892 35.9128 11.7027C35.8447 12.0162 35.7342 12.2948 35.5811 12.5387C35.428 12.7825 35.226 12.9785 34.9751 13.1265C34.7241 13.2745 34.4116 13.3486 34.0373 13.3486C33.6631 13.3486 33.3441 13.2767 33.0805 13.133C32.8168 12.9893 32.602 12.7999 32.4362 12.5648C32.2703 12.3297 32.1491 12.0575 32.0725 11.7484C31.996 11.4392 31.9577 11.1192 31.9577 10.7883C31.9577 10.4748 31.9939 10.1656 32.0662 9.86084C32.1385 9.55604 32.2554 9.2839 32.417 9.04442C32.5786 8.80494 32.787 8.61118 33.0422 8.46313C33.2973 8.31509 33.6078 8.24107 33.9735 8.24107C34.3223 8.24107 34.6263 8.31074 34.8857 8.45007C35.1452 8.58941 35.3578 8.77664 35.5237 9.01177C35.6895 9.24689 35.8129 9.51468 35.8937 9.81512C35.9745 10.1156 36.0149 10.4225 36.0149 10.736ZM38.4772 7.41812V16.7448H39.5617V13.2702H39.5872C39.7063 13.4705 39.853 13.6381 40.0273 13.7731C40.2017 13.9081 40.3867 14.0148 40.5823 14.0931C40.778 14.1715 40.9757 14.2281 41.1756 14.2629C41.3755 14.2978 41.5562 14.3152 41.7178 14.3152C42.2197 14.3152 42.6598 14.2238 43.0383 14.0409C43.4168 13.858 43.7315 13.6076 43.9824 13.2898C44.2333 12.9719 44.4205 12.5996 44.5438 12.1729C44.6671 11.7462 44.7288 11.2934 44.7288 10.8144C44.7288 10.3354 44.665 9.88261 44.5374 9.45589C44.4098 9.02918 44.2206 8.65254 43.9697 8.32598C43.7188 7.99941 43.404 7.74034 43.0256 7.54875C42.6471 7.35716 42.2026 7.26137 41.6923 7.26137C41.233 7.26137 40.812 7.34628 40.4292 7.51609C40.0465 7.68591 39.7658 7.95804 39.5872 8.33251H39.5617V7.41812H38.4772ZM43.5805 10.736C43.5805 11.067 43.5465 11.3892 43.4785 11.7027C43.4104 12.0162 43.2999 12.2948 43.1468 12.5387C42.9937 12.7825 42.7916 12.9785 42.5407 13.1265C42.2898 13.2745 41.9772 13.3486 41.603 13.3486C41.2288 13.3486 40.9098 13.2767 40.6461 13.133C40.3825 12.9893 40.1677 12.7999 40.0018 12.5648C39.836 12.3297 39.7148 12.0575 39.6382 11.7484C39.5617 11.4392 39.5234 11.1192 39.5234 10.7883C39.5234 10.4748 39.5595 10.1656 39.6318 9.86084C39.7041 9.55604 39.8211 9.2839 39.9827 9.04442C40.1443 8.80494 40.3527 8.61118 40.6079 8.46313C40.863 8.31509 41.1735 8.24107 41.5392 8.24107C41.8879 8.24107 42.192 8.31074 42.4514 8.45007C42.7108 8.58941 42.9235 8.77664 43.0893 9.01177C43.2552 9.24689 43.3785 9.51468 43.4593 9.81512C43.5401 10.1156 43.5805 10.4225 43.5805 10.736ZM54.9992 7.57487H56.1475C56.1305 7.06108 56.0348 6.61913 55.8604 6.24902C55.686 5.87891 55.4479 5.57194 55.1459 5.3281C54.844 5.08426 54.4931 4.90574 54.0934 4.79253C53.6936 4.67932 53.2598 4.62272 52.792 4.62272C52.3753 4.62272 51.9691 4.67715 51.5736 4.786C51.1781 4.89486 50.8251 5.06032 50.5147 5.28238C50.2042 5.50445 49.9554 5.78747 49.7683 6.13145C49.5812 6.47544 49.4876 6.88255 49.4876 7.35281C49.4876 7.77952 49.5706 8.13439 49.7364 8.41741C49.9023 8.70044 50.1234 8.93121 50.3999 9.10973C50.6763 9.28826 50.9889 9.43194 51.3376 9.5408C51.6863 9.64966 52.0414 9.74545 52.4029 9.82818C52.7644 9.91091 53.1195 9.99146 53.4682 10.0698C53.817 10.1482 54.1295 10.2505 54.406 10.3768C54.6824 10.5031 54.9035 10.6664 55.0694 10.8667C55.2353 11.067 55.3182 11.3282 55.3182 11.6504C55.3182 11.99 55.2501 12.2687 55.114 12.4864C54.978 12.7041 54.7993 12.8761 54.5782 13.0024C54.3571 13.1287 54.1083 13.2179 53.8318 13.2702C53.5554 13.3224 53.2811 13.3486 53.0089 13.3486C52.6687 13.3486 52.337 13.305 52.0138 13.2179C51.6906 13.1308 51.4078 12.9959 51.1654 12.813C50.9229 12.6301 50.7273 12.3972 50.5785 12.1141C50.4296 11.8311 50.3552 11.4937 50.3552 11.1018H49.207C49.207 11.6678 49.3069 12.1577 49.5068 12.5713C49.7067 12.985 49.9788 13.3246 50.3233 13.5902C50.6678 13.8558 51.0675 14.0539 51.5226 14.1846C51.9776 14.3152 52.4603 14.3805 52.9706 14.3805C53.3874 14.3805 53.8063 14.3304 54.2273 14.2303C54.6484 14.1301 55.029 13.969 55.3692 13.747C55.7094 13.5249 55.988 13.2375 56.2049 12.8848C56.4218 12.5321 56.5302 12.1076 56.5302 11.6112C56.5302 11.1497 56.4473 10.7665 56.2814 10.4617C56.1156 10.1569 55.8944 9.90438 55.618 9.70408C55.3416 9.50379 55.029 9.34486 54.6803 9.2273C54.3315 9.10973 53.9764 9.00741 53.6149 8.92033C53.2535 8.83324 52.8984 8.75269 52.5496 8.67867C52.2009 8.60465 51.8883 8.51103 51.6119 8.39782C51.3355 8.28461 51.1143 8.13875 50.9485 7.96022C50.7826 7.7817 50.6997 7.54875 50.6997 7.26137C50.6997 6.95658 50.7571 6.70186 50.8719 6.49721C50.9867 6.29256 51.1398 6.12928 51.3312 6.00736C51.5226 5.88544 51.7416 5.79836 51.9883 5.74611C52.2349 5.69386 52.4858 5.66773 52.741 5.66773C53.3704 5.66773 53.8871 5.81795 54.2911 6.11839C54.6952 6.41883 54.9312 6.90432 54.9992 7.57487ZM59.3243 7.41812V5.39342H58.2398V7.41812H57.1171V8.39782H58.2398V12.6954C58.2398 13.0089 58.2696 13.2615 58.3291 13.4531C58.3887 13.6446 58.4801 13.7927 58.6034 13.8972C58.7268 14.0017 58.8884 14.0735 59.0883 14.1127C59.2881 14.1519 59.5284 14.1715 59.8091 14.1715H60.6384V13.1918H60.1408C59.9707 13.1918 59.8325 13.1853 59.7262 13.1722C59.6199 13.1592 59.5369 13.1308 59.4774 13.0873C59.4178 13.0438 59.3774 12.9828 59.3562 12.9044C59.3349 12.8261 59.3243 12.7216 59.3243 12.5909V8.39782H60.6384V7.41812H59.3243ZM62.6287 10.8013C62.6287 10.392 62.6818 10.0285 62.7882 9.71062C62.8945 9.39276 63.0412 9.12498 63.2283 8.90726C63.4155 8.68955 63.6345 8.52409 63.8854 8.41088C64.1363 8.29767 64.4021 8.24107 64.6828 8.24107C64.9635 8.24107 65.2293 8.29767 65.4802 8.41088C65.7311 8.52409 65.9501 8.68955 66.1372 8.90726C66.3243 9.12498 66.4711 9.39276 66.5774 9.71062C66.6837 10.0285 66.7369 10.392 66.7369 10.8013C66.7369 11.2106 66.6837 11.5742 66.5774 11.8921C66.4711 12.2099 66.3243 12.4755 66.1372 12.6889C65.9501 12.9023 65.7311 13.0655 65.4802 13.1787C65.2293 13.292 64.9635 13.3486 64.6828 13.3486C64.4021 13.3486 64.1363 13.292 63.8854 13.1787C63.6345 13.0655 63.4155 12.9023 63.2283 12.6889C63.0412 12.4755 62.8945 12.2099 62.7882 11.8921C62.6818 11.5742 62.6287 11.2106 62.6287 10.8013ZM61.4804 10.8013C61.4804 11.2977 61.5485 11.7593 61.6846 12.186C61.8207 12.6127 62.0248 12.985 62.297 13.3028C62.5692 13.6207 62.9051 13.8689 63.3049 14.0474C63.7046 14.2259 64.1639 14.3152 64.6828 14.3152C65.2101 14.3152 65.6715 14.2259 66.0671 14.0474C66.4626 13.8689 66.7964 13.6207 67.0686 13.3028C67.3408 12.985 67.5449 12.6127 67.681 12.186C67.8171 11.7593 67.8851 11.2977 67.8851 10.8013C67.8851 10.305 67.8171 9.84124 67.681 9.41018C67.5449 8.97911 67.3408 8.60465 67.0686 8.28679C66.7964 7.96893 66.4626 7.71856 66.0671 7.53569C65.6715 7.35281 65.2101 7.26137 64.6828 7.26137C64.1639 7.26137 63.7046 7.35281 63.3049 7.53569C62.9051 7.71856 62.5692 7.96893 62.297 8.28679C62.0248 8.60465 61.8207 8.97911 61.6846 9.41018C61.5485 9.84124 61.4804 10.305 61.4804 10.8013ZM69.1227 7.41812V14.1715H70.2071V11.1671C70.2071 10.7317 70.2496 10.3463 70.3347 10.0111C70.4198 9.67578 70.5558 9.39058 70.743 9.15545C70.9301 8.92033 71.1768 8.7418 71.483 8.61989C71.7892 8.49797 72.1591 8.43701 72.5929 8.43701V7.26137C72.006 7.24395 71.5212 7.36587 71.1385 7.62713C70.7557 7.88838 70.4325 8.29332 70.1688 8.84195H70.1433V7.41812H69.1227ZM77.76 10.1482H73.9708C73.9878 9.88696 74.0431 9.64095 74.1367 9.41018C74.2302 9.1794 74.3578 8.97693 74.5194 8.80276C74.681 8.62859 74.8745 8.49144 75.0999 8.39129C75.3253 8.29114 75.5784 8.24107 75.8591 8.24107C76.1312 8.24107 76.38 8.29114 76.6054 8.39129C76.8308 8.49144 77.0264 8.62642 77.1923 8.79623C77.3582 8.96605 77.49 9.16852 77.5878 9.40364C77.6856 9.63877 77.743 9.88696 77.76 10.1482ZM78.8062 12.0292H77.7345C77.641 12.4734 77.4475 12.8043 77.154 13.022C76.8606 13.2397 76.4842 13.3486 76.0249 13.3486C75.6677 13.3486 75.3572 13.2876 75.0936 13.1657C74.8299 13.0438 74.613 12.8805 74.4429 12.6758C74.2728 12.4712 74.1494 12.2361 74.0729 11.9705C73.9963 11.7048 73.9623 11.424 73.9708 11.1279H78.9083C78.9253 10.7186 78.8892 10.2876 78.7998 9.83471C78.7105 9.38187 78.5489 8.96387 78.315 8.5807C78.0811 8.19753 77.7707 7.88185 77.3837 7.63366C76.9967 7.38547 76.5097 7.26137 75.9228 7.26137C75.4721 7.26137 75.0574 7.34846 74.6789 7.52262C74.3004 7.69679 73.973 7.94063 73.6965 8.25413C73.4201 8.56764 73.2053 8.93774 73.0522 9.36446C72.8991 9.79117 72.8226 10.2614 72.8226 10.7752C72.8396 11.289 72.914 11.7636 73.0458 12.199C73.1777 12.6345 73.3754 13.0089 73.6391 13.3224C73.9028 13.6359 74.2281 13.8798 74.6151 14.0539C75.0021 14.2281 75.4593 14.3152 75.9866 14.3152C76.7351 14.3152 77.356 14.1236 77.8493 13.7404C78.3427 13.3573 78.6616 12.7869 78.8062 12.0292Z" fill="white"/>
</svg>
