<svg width="40" height="40" viewBox="0 0 40 40" fill="none" xmlns="http://www.w3.org/2000/svg">
<path fill-rule="evenodd" clip-rule="evenodd" d="M20 0C8.95431 0 0 8.95431 0 20C0 31.0457 8.95431 40 20 40C31.0457 40 40 31.0457 40 20C40 8.95431 31.0457 0 20 0ZM18.522 20.9356V28.43H21.5382V20.9356H24.0539L24.4305 18.0148H21.5382V16.15C21.5382 15.3044 21.773 14.7281 22.9858 14.7281L24.5323 14.7274V12.1151C24.2648 12.0795 23.3467 12 22.2786 12C20.0488 12 18.522 13.3611 18.522 15.8608V18.0148H16V20.9356H18.522Z" fill="white"/>
</svg>
