<svg width="40" height="40" viewBox="0 0 40 40" fill="none" xmlns="http://www.w3.org/2000/svg">
<path fill-rule="evenodd" clip-rule="evenodd" d="M20 0C8.95431 0 0 8.95431 0 20C0 31.0457 8.95431 40 20 40C31.0457 40 40 31.0457 40 20C40 8.95431 31.0457 0 20 0ZM24.3918 11.9066C23.311 11.8573 22.9869 11.8469 20.25 11.8469C17.5131 11.8469 17.1889 11.8573 16.1081 11.9066C15.1088 11.9522 14.566 12.1192 14.2048 12.2595C13.7264 12.4455 13.3849 12.6676 13.0263 13.0263C12.6676 13.385 12.4454 13.7264 12.2595 14.2048C12.1192 14.5661 11.9522 15.1088 11.9066 16.1082C11.8573 17.189 11.8468 17.5131 11.8468 20.25C11.8468 22.9869 11.8573 23.3111 11.9066 24.3919C11.9522 25.3912 12.1192 25.934 12.2595 26.2952C12.4454 26.7736 12.6676 27.1151 13.0263 27.4737C13.3849 27.8324 13.7264 28.0546 14.2048 28.2405C14.566 28.3808 15.1088 28.5478 16.1081 28.5934C17.1888 28.6427 17.5129 28.6532 20.25 28.6532C22.987 28.6532 23.3112 28.6427 24.3918 28.5934C25.3912 28.5478 25.9339 28.3808 26.2952 28.2405C26.7736 28.0546 27.115 27.8324 27.4737 27.4737C27.8324 27.1151 28.0545 26.7736 28.2404 26.2952C28.3808 25.934 28.5478 25.3912 28.5934 24.3919C28.6427 23.3111 28.6531 22.9869 28.6531 20.25C28.6531 17.5131 28.6427 17.189 28.5934 16.1081C28.5478 15.1088 28.3808 14.5661 28.2404 14.2048C28.0545 13.7264 27.8324 13.385 27.4737 13.0263C27.115 12.6676 26.7736 12.4455 26.2952 12.2595C25.9339 12.1192 25.3912 11.9522 24.3918 11.9066ZM20.25 10C17.4662 10 17.1172 10.0118 16.0239 10.0617C14.9329 10.1115 14.1878 10.2847 13.5358 10.5381C12.8618 10.8001 12.2902 11.1506 11.7203 11.7204C11.1505 12.2902 10.8 12.8618 10.5381 13.5359C10.2847 14.1879 10.1114 14.9329 10.0616 16.024C10.0118 17.1172 10 17.4663 10 20.25C10 23.0338 10.0118 23.3828 10.0616 24.4761C10.1114 25.5671 10.2847 26.3122 10.5381 26.9642C10.8 27.6382 11.1505 28.2098 11.7203 28.7797C12.2902 29.3495 12.8618 29.7 13.5358 29.9619C14.1878 30.2153 14.9329 30.3886 16.0239 30.4384C17.1172 30.4882 17.4662 30.5 20.25 30.5C23.0337 30.5 23.3828 30.4882 24.476 30.4384C25.5671 30.3886 26.3121 30.2153 26.9641 29.9619C27.6382 29.7 28.2098 29.3495 28.7796 28.7797C29.3494 28.2098 29.6999 27.6382 29.9619 26.9642C30.2153 26.3122 30.3885 25.5671 30.4383 24.4761C30.4882 23.3828 30.5 23.0338 30.5 20.25C30.5 17.4663 30.4882 17.1172 30.4383 16.024C30.3885 14.9329 30.2153 14.1879 29.9619 13.5359C29.6999 12.8618 29.3494 12.2902 28.7796 11.7204C28.2098 11.1506 27.6382 10.8001 26.9641 10.5381C26.3121 10.2847 25.5671 10.1115 24.476 10.0617C23.3828 10.0118 23.0337 10 20.25 10ZM15.003 20.2703C15.003 17.3613 17.3613 15.003 20.2703 15.003C23.1794 15.003 25.5377 17.3613 25.5377 20.2703C25.5377 23.1794 23.1794 25.5377 20.2703 25.5377C17.3613 25.5377 15.003 23.1794 15.003 20.2703ZM20.2703 23.6895C18.382 23.6895 16.8512 22.1587 16.8512 20.2703C16.8512 18.382 18.382 16.8512 20.2703 16.8512C22.1587 16.8512 23.6895 18.382 23.6895 20.2703C23.6895 22.1587 22.1587 23.6895 20.2703 23.6895ZM25.7004 15.9792C26.3743 15.9792 26.9206 15.4328 26.9206 14.7589C26.9206 14.085 26.3743 13.5387 25.7004 13.5387C25.0265 13.5387 24.4802 14.085 24.4802 14.7589C24.4802 15.4328 25.0265 15.9792 25.7004 15.9792Z" fill="white"/>
</svg>
