<svg width="30" height="30" viewBox="0 0 30 30" fill="none" xmlns="http://www.w3.org/2000/svg">
<path fill-rule="evenodd" clip-rule="evenodd" d="M18.3905 17.5786H19.2939L25 23.2962L23.2962 25L17.5786 19.2939V18.3905L17.2699 18.0703C15.9663 19.191 14.2739 19.8656 12.4328 19.8656C8.32762 19.8656 5 16.538 5 12.4328C5 8.32762 8.32762 5 12.4328 5C16.538 5 19.8656 8.32762 19.8656 12.4328C19.8656 14.2739 19.191 15.9663 18.0703 17.2699L18.3905 17.5786ZM7.28702 12.4328C7.28702 15.2802 9.58548 17.5786 12.4328 17.5786C15.2802 17.5786 17.5786 15.2802 17.5786 12.4328C17.5786 9.58548 15.2802 7.28702 12.4328 7.28702C9.58548 7.28702 7.28702 9.58548 7.28702 12.4328Z" fill="black"/>
</svg>
