<svg width="40" height="40" viewBox="0 0 40 40" fill="none" xmlns="http://www.w3.org/2000/svg">
<path fill-rule="evenodd" clip-rule="evenodd" d="M20 0C8.95431 0 0 8.95431 0 20C0 31.0457 8.95431 40 20 40C31.0457 40 40 31.0457 40 20C40 8.95431 31.0457 0 20 0ZM26.1368 21.3596C26.5355 20.3596 26.7342 19.3536 26.7342 18.3438C26.7342 18.2292 26.724 18.106 26.7037 17.9719C27.3215 17.5341 27.8489 17.0097 28.2871 16.4C27.7088 16.6487 27.1024 16.8097 26.4654 16.8865C27.1623 16.4866 27.6298 15.9341 27.868 15.228C27.2311 15.5719 26.5648 15.8097 25.868 15.9427C25.2514 15.3146 24.4845 15 23.5685 15C22.7137 15 21.9761 15.2951 21.3595 15.8866C20.7429 16.4768 20.4334 17.1817 20.4334 18.0012C20.4334 18.2292 20.4639 18.4585 20.5238 18.6865C19.2499 18.6304 18.0499 18.3255 16.9262 17.7719C15.8014 17.2195 14.8408 16.4768 14.0446 15.5427C13.7656 16.0195 13.6268 16.5244 13.6268 17.0573C13.6268 17.5536 13.7758 18.0207 14.0739 18.4585C14.3733 18.8963 14.7517 19.2584 15.209 19.545C14.9109 19.545 14.6268 19.5109 14.358 19.445C14.0892 19.378 13.9554 19.2877 13.9554 19.1731V19.2304C13.9554 19.9548 14.1695 20.5877 14.5962 21.1304C15.0243 21.6743 15.5873 22.0218 16.2842 22.1742C16.0256 22.2316 15.7262 22.2596 15.3886 22.2596C15.1695 22.2596 14.9606 22.2413 14.7606 22.2023C14.9606 22.812 15.3236 23.312 15.8511 23.7035C16.3785 24.0937 16.981 24.2888 17.6575 24.2888C16.5224 25.1461 15.2192 25.5754 13.7452 25.5754C13.507 25.5754 13.2586 25.5656 13 25.5461C14.4727 26.4424 16.0753 26.89 17.8065 26.89C19.1798 26.89 20.4487 26.6327 21.613 26.1181C22.7774 25.6034 23.7239 24.9327 24.4501 24.1035C25.1762 23.2742 25.7393 22.3596 26.1368 21.3596Z" fill="white"/>
</svg>
